<?xml version="1.0" encoding="UTF-8"?>
<svg width="399px" height="399px" viewBox="0 0 399 399" version="1.1" xmlns="http://www.w3.org/2000/svg" xmlns:xlink="http://www.w3.org/1999/xlink">
    <title>小程序@2x</title>
    <defs>
        <linearGradient x1="50%" y1="0%" x2="50%" y2="100%" id="linearGradient-1">
            <stop stop-color="#3EAF7C" offset="0%"></stop>
            <stop stop-color="#2C5679" offset="100%"></stop>
        </linearGradient>
    </defs>
    <g id="官网" stroke="none" stroke-width="1" fill="none" fill-rule="evenodd">
        <g id="附件" transform="translate(-264.000000, -194.000000)" fill-rule="nonzero">
            <g id="小程序" transform="translate(264.000000, 194.000000)">
                <rect id="矩形" x="0" y="0" width="399" height="399"></rect>
                <path d="M357.570966,32 L41.3581835,32 C22.3592608,32 7,47.4391353 7,66.3738704 L7,332.62613 C7,351.633727 22.4320895,367 41.3581835,367 L357.641817,367 C376.640739,367 392,351.560865 392,332.62613 L392,66.3738704 C392,47.4390762 376.567911,32 357.568899,32 L357.570966,32 Z M150.693578,94.2663679 C150.984749,84.7989856 159.283139,76.642468 168.600632,76.642468 C178.42766,76.642468 186.798853,85.3815856 186.507685,95.4315974 C186.289307,105.117477 178.282091,112.909862 168.600632,112.83703 C158.409638,112.83703 150.329612,104.31638 150.693578,94.2663679 Z M98.6466204,93.829412 C99.0833769,84.4348326 107.745716,76.2783149 116.99041,76.6424473 C126.890237,76.9337514 135.043032,85.9641944 134.460698,95.8685414 C133.951148,105.554421 125.725569,113.055506 116.116909,112.837009 C105.925915,112.545705 98.0642863,103.952227 98.6466204,93.829412 Z M46.3812061,94.1207167 C46.7451694,84.6533344 55.1163355,76.5696196 64.4338285,76.642452 C74.1880574,76.7152779 82.5592501,85.5272344 82.1952839,95.5772462 C81.8313207,105.263126 73.8240912,112.982679 64.1426615,112.837043 C54.0244665,112.764217 46.01724,104.243561 46.3812061,94.1207463 L46.3812061,94.1207167 Z M377.443124,332.626084 C377.370331,343.549996 368.562396,352.434778 357.570671,352.434778 L41.3578883,352.434778 C30.4389618,352.434778 21.5582341,343.549996 21.5582341,332.626084 L21.5582341,160.683782 L377.443124,160.683782 L377.443124,332.626084 L377.443124,332.626084 Z" id="形状" fill="url(#linearGradient-1)"></path>
                <g id="背单词" transform="translate(99.000000, 186.000000)" fill="#389D70">
                    <path d="M41.9914764,83.9655254 L40.6598495,98.782994 L41.9914764,100.017783 C44.6379718,99.6145872 52.7952082,99.2029921 66.4883478,98.782994 C88.1209367,99.6229853 99.1507611,103.722138 99.6030937,111.130885 C99.6030937,119.371204 90.5497309,123.697186 72.45136,124.100292 L62.5186293,124.100292 C56.7733918,124.100292 51.4804011,124.30189 46.6229476,124.713485 C41.7654574,125.125081 37.7873351,125.536677 34.7053392,125.948274 C10.8617554,126.771466 -0.394173962,116.901571 0.928963307,96.3133372 C0.928963307,90.5593924 3.35770843,71.617556 8.21519869,39.5131636 C9.09457277,33.7592189 9.53844637,30.6680503 9.53844637,30.256454 C3.79320892,27.7868759 0.702833811,22.4445398 0.267333331,14.195829 C-0.620415099,9.6766733 0.702832585,4.93911931 4.23707638,0 C3.79320155,4.93914392 9.09456664,7.2071321 20.132758,6.79553575 C21.8915062,7.20713087 24.3202513,7.40872941 27.4189934,7.40872941 C81.2701282,8.24032139 108.430204,13.7926688 108.874072,24.0825038 C108.874072,33.5492076 94.0754225,37.6651834 64.5033965,36.4303943 L64.5033856,36.4303936 C60.3152421,36.1327263 56.1211853,35.9254811 51.9241963,35.8088006 C50.1487019,37.8751743 48.3815745,44.2507095 46.6228263,54.9521531 C49.2693217,56.5985385 56.9910575,57.4217312 69.8047802,57.4217312 C71.1280278,57.0185354 72.0074081,56.8001371 72.4512755,56.8001371 C87.9030897,58.4549144 96.2948593,64.2088591 97.6181193,74.0871838 C97.6181193,82.3275028 90.9935016,85.4186713 77.7526578,83.3522854 L77.7526665,83.3522872 C74.0260445,82.5747023 70.2678194,81.9581384 66.4883946,81.5043119 C51.915973,81.9159082 43.7503083,82.7306992 41.9915233,83.9654858 M108.87399,27.5516837 C113.145306,20.9073497 120.247296,17.320592 130.205091,16.7997903 C139.082575,18.8493679 143.353775,26.7956877 143.002043,40.621929 L143.002041,40.6219305 C147.393704,36.1393325 152.926111,32.9494546 158.998323,31.3988253 C184.583884,29.8616452 198.268694,47.0311194 200.052506,82.8903288 C203.595128,113.617196 197.205007,127.703881 180.857017,125.141894 C170.18728,125.141894 165.924398,120.286743 168.060065,110.542836 C168.403439,107.468463 168.58769,103.377713 168.58769,98.2537624 C168.939439,94.6753967 169.123689,87.2414744 169.123689,75.9687424 C168.060065,66.7456372 162.540943,62.13406 152.591404,62.13406 C144.769166,64.7044392 141.03392,77.7663541 141.402423,101.328 C143.881419,118.749415 139.082547,126.939383 126.997464,125.914514 C117.047975,125.914514 112.60919,116.691409 113.672852,98.2536394 C113.672852,93.1296893 114.208851,85.191823 115.27248,74.4315008 C115.62423,69.3159549 115.984354,65.7291849 116.336103,63.6796074 C117.047977,42.6798261 114.55223,30.6343881 108.87399,27.560028" id="形状"></path>
                </g>
            </g>
        </g>
    </g>
</svg>